<mxfile host="app.diagrams.net" agent="Mozilla/5.0 (Windows NT 10.0; Win64; x64) AppleWebKit/537.36 (KHTML, like Gecko) Chrome/128.0.0.0 Safari/537.36" version="24.7.7" pages="2">
  <diagram name="DIAGRAMA DE SECUENCIA" id="fjpgwgDMnVqn8Z6JgLB4">
    <mxGraphModel dx="1111" dy="628" grid="1" gridSize="10" guides="1" tooltips="1" connect="1" arrows="1" fold="1" page="1" pageScale="1" pageWidth="827" pageHeight="1169" math="0" shadow="0">
      <root>
        <mxCell id="0" />
        <mxCell id="1" parent="0" />
        <mxCell id="EzJwgJsFdN6tnA4pP23m-1" value="NOTIFICACIONES" style="shape=umlLifeline;perimeter=lifelinePerimeter;whiteSpace=wrap;html=1;container=1;dropTarget=0;collapsible=0;recursiveResize=0;outlineConnect=0;portConstraint=eastwest;newEdgeStyle={&quot;curved&quot;:0,&quot;rounded&quot;:0};" parent="1" vertex="1">
          <mxGeometry x="380" y="10" width="100" height="300" as="geometry" />
        </mxCell>
        <mxCell id="EzJwgJsFdN6tnA4pP23m-4" value="" style="html=1;points=[[0,0,0,0,5],[0,1,0,0,-5],[1,0,0,0,5],[1,1,0,0,-5]];perimeter=orthogonalPerimeter;outlineConnect=0;targetShapes=umlLifeline;portConstraint=eastwest;newEdgeStyle={&quot;curved&quot;:0,&quot;rounded&quot;:0};" parent="EzJwgJsFdN6tnA4pP23m-1" vertex="1">
          <mxGeometry x="45" y="60" width="10" height="220" as="geometry" />
        </mxCell>
        <mxCell id="EzJwgJsFdN6tnA4pP23m-3" value="&lt;span style=&quot;text-wrap: nowrap;&quot;&gt;MIEMBROS DEL EQUIPO&lt;/span&gt;" style="shape=umlLifeline;perimeter=lifelinePerimeter;whiteSpace=wrap;html=1;container=1;dropTarget=0;collapsible=0;recursiveResize=0;outlineConnect=0;portConstraint=eastwest;newEdgeStyle={&quot;curved&quot;:0,&quot;rounded&quot;:0};" parent="1" vertex="1">
          <mxGeometry x="577" y="10" width="110" height="300" as="geometry" />
        </mxCell>
        <mxCell id="EzJwgJsFdN6tnA4pP23m-2" value="" style="html=1;points=[[0,0,0,0,5],[0,1,0,0,-5],[1,0,0,0,5],[1,1,0,0,-5]];perimeter=orthogonalPerimeter;outlineConnect=0;targetShapes=umlLifeline;portConstraint=eastwest;newEdgeStyle={&quot;curved&quot;:0,&quot;rounded&quot;:0};" parent="EzJwgJsFdN6tnA4pP23m-3" vertex="1">
          <mxGeometry x="50" y="102.5" width="10" height="75" as="geometry" />
        </mxCell>
        <mxCell id="EzJwgJsFdN6tnA4pP23m-5" value="&lt;span style=&quot;text-wrap: nowrap;&quot;&gt;&lt;i&gt;PROJECT ADMIN&lt;/i&gt;&lt;/span&gt;" style="shape=umlLifeline;perimeter=lifelinePerimeter;whiteSpace=wrap;html=1;container=1;dropTarget=0;collapsible=0;recursiveResize=0;outlineConnect=0;portConstraint=eastwest;newEdgeStyle={&quot;curved&quot;:0,&quot;rounded&quot;:0};" parent="1" vertex="1">
          <mxGeometry x="220" y="10" width="110" height="300" as="geometry" />
        </mxCell>
        <mxCell id="EzJwgJsFdN6tnA4pP23m-6" value="" style="html=1;points=[[0,0,0,0,5],[0,1,0,0,-5],[1,0,0,0,5],[1,1,0,0,-5]];perimeter=orthogonalPerimeter;outlineConnect=0;targetShapes=umlLifeline;portConstraint=eastwest;newEdgeStyle={&quot;curved&quot;:0,&quot;rounded&quot;:0};" parent="EzJwgJsFdN6tnA4pP23m-5" vertex="1">
          <mxGeometry x="50" y="60" width="10" height="220" as="geometry" />
        </mxCell>
        <mxCell id="EzJwgJsFdN6tnA4pP23m-7" value="crearNotificaciÃ³n" style="html=1;verticalAlign=bottom;startArrow=oval;startFill=1;endArrow=block;startSize=8;curved=0;rounded=0;" parent="1" source="EzJwgJsFdN6tnA4pP23m-6" target="EzJwgJsFdN6tnA4pP23m-4" edge="1">
          <mxGeometry x="-0.0345" width="60" relative="1" as="geometry">
            <mxPoint x="280" y="110" as="sourcePoint" />
            <mxPoint x="579.5" y="110" as="targetPoint" />
            <mxPoint as="offset" />
            <Array as="points">
              <mxPoint x="400" y="90" />
            </Array>
          </mxGeometry>
        </mxCell>
        <mxCell id="EzJwgJsFdN6tnA4pP23m-8" value="&lt;span style=&quot;font-size: 12px; text-align: left; background-color: rgb(251, 251, 251);&quot;&gt;notificacion&lt;/span&gt;" style="html=1;verticalAlign=bottom;endArrow=block;curved=0;rounded=0;dashed=1;entryX=0.333;entryY=0.623;entryDx=0;entryDy=0;entryPerimeter=0;" parent="1" edge="1">
          <mxGeometry x="0.0019" relative="1" as="geometry">
            <mxPoint x="426.17" y="250" as="sourcePoint" />
            <mxPoint x="270.00000000000006" y="250" as="targetPoint" />
            <mxPoint as="offset" />
          </mxGeometry>
        </mxCell>
        <mxCell id="EzJwgJsFdN6tnA4pP23m-12" value="&lt;span style=&quot;font-size: 12px; text-align: left; background-color: rgb(251, 251, 251);&quot;&gt;agregarMiembroEquipo&lt;/span&gt;" style="html=1;verticalAlign=bottom;startArrow=oval;startFill=1;endArrow=block;startSize=8;curved=0;rounded=0;" parent="1" target="EzJwgJsFdN6tnA4pP23m-2" edge="1">
          <mxGeometry x="-0.0345" width="60" relative="1" as="geometry">
            <mxPoint x="430" y="130" as="sourcePoint" />
            <mxPoint x="575" y="130" as="targetPoint" />
            <mxPoint as="offset" />
          </mxGeometry>
        </mxCell>
        <mxCell id="EzJwgJsFdN6tnA4pP23m-14" value="&lt;span style=&quot;font-size: 12px; text-align: left; background-color: rgb(251, 251, 251);&quot;&gt;miembrosEquipo&lt;/span&gt;" style="html=1;verticalAlign=bottom;endArrow=block;curved=0;rounded=0;dashed=1;entryX=0.333;entryY=0.623;entryDx=0;entryDy=0;entryPerimeter=0;" parent="1" edge="1">
          <mxGeometry x="0.0019" relative="1" as="geometry">
            <mxPoint x="620" y="170.00000000000003" as="sourcePoint" />
            <mxPoint x="430" y="170.00000000000003" as="targetPoint" />
            <mxPoint as="offset" />
          </mxGeometry>
        </mxCell>
        <mxCell id="EzJwgJsFdN6tnA4pP23m-15" value="&lt;div style=&quot;text-align: left;&quot;&gt;&lt;span style=&quot;font-size: 12px; background-color: rgb(251, 251, 251);&quot;&gt;notificarAsignacion&lt;/span&gt;&lt;br&gt;&lt;/div&gt;" style="html=1;verticalAlign=bottom;startArrow=oval;startFill=1;endArrow=block;startSize=8;curved=0;rounded=0;" parent="1" edge="1" target="EzJwgJsFdN6tnA4pP23m-17">
          <mxGeometry x="-0.0345" width="60" relative="1" as="geometry">
            <mxPoint x="430" y="210" as="sourcePoint" />
            <mxPoint x="784.5000000000002" y="210" as="targetPoint" />
            <mxPoint as="offset" />
          </mxGeometry>
        </mxCell>
        <mxCell id="EzJwgJsFdN6tnA4pP23m-16" value="&lt;span style=&quot;text-wrap: nowrap;&quot;&gt;STAKHOLDERS&lt;/span&gt;" style="shape=umlLifeline;perimeter=lifelinePerimeter;whiteSpace=wrap;html=1;container=1;dropTarget=0;collapsible=0;recursiveResize=0;outlineConnect=0;portConstraint=eastwest;newEdgeStyle={&quot;curved&quot;:0,&quot;rounded&quot;:0};size=40;" parent="1" vertex="1">
          <mxGeometry x="750" y="10" width="110" height="300" as="geometry" />
        </mxCell>
        <mxCell id="EzJwgJsFdN6tnA4pP23m-17" value="" style="html=1;points=[[0,0,0,0,5],[0,1,0,0,-5],[1,0,0,0,5],[1,1,0,0,-5]];perimeter=orthogonalPerimeter;outlineConnect=0;targetShapes=umlLifeline;portConstraint=eastwest;newEdgeStyle={&quot;curved&quot;:0,&quot;rounded&quot;:0};" parent="EzJwgJsFdN6tnA4pP23m-16" vertex="1">
          <mxGeometry x="50" y="177.5" width="10" height="62.5" as="geometry" />
        </mxCell>
        <mxCell id="EzJwgJsFdN6tnA4pP23m-20" value="" style="html=1;points=[[0,0,0,0,5],[0,1,0,0,-5],[1,0,0,0,5],[1,1,0,0,-5]];perimeter=orthogonalPerimeter;outlineConnect=0;targetShapes=umlLifeline;portConstraint=eastwest;newEdgeStyle={&quot;curved&quot;:0,&quot;rounded&quot;:0};" parent="EzJwgJsFdN6tnA4pP23m-16" vertex="1">
          <mxGeometry x="60" y="193.75" width="10" height="30" as="geometry" />
        </mxCell>
        <mxCell id="EzJwgJsFdN6tnA4pP23m-22" value="" style="edgeStyle=orthogonalEdgeStyle;rounded=0;orthogonalLoop=1;jettySize=auto;html=1;curved=0;entryX=1;entryY=1;entryDx=0;entryDy=-5;entryPerimeter=0;" parent="1" edge="1">
          <mxGeometry relative="1" as="geometry">
            <mxPoint x="827" y="210" as="sourcePoint" />
            <mxPoint x="827" y="225" as="targetPoint" />
            <Array as="points">
              <mxPoint x="887" y="210" />
              <mxPoint x="887" y="225" />
            </Array>
          </mxGeometry>
        </mxCell>
        <mxCell id="EzJwgJsFdN6tnA4pP23m-23" value="enviarNotificacion" style="text;html=1;align=center;verticalAlign=middle;resizable=0;points=[];autosize=1;strokeColor=none;fillColor=none;" parent="1" vertex="1">
          <mxGeometry x="880" y="200" width="120" height="30" as="geometry" />
        </mxCell>
        <mxCell id="lLx--u4GZlYKPrD8kH5s-1" value="&lt;span style=&quot;font-size: 12px; text-align: left; background-color: rgb(251, 251, 251);&quot;&gt;agregarStakholders&lt;/span&gt;" style="html=1;verticalAlign=bottom;startArrow=oval;startFill=1;endArrow=block;startSize=8;curved=0;rounded=0;" edge="1" parent="1">
          <mxGeometry x="-0.0345" width="60" relative="1" as="geometry">
            <mxPoint x="640" y="140" as="sourcePoint" />
            <mxPoint x="800" y="140" as="targetPoint" />
            <mxPoint as="offset" />
          </mxGeometry>
        </mxCell>
      </root>
    </mxGraphModel>
  </diagram>
  <diagram name="DIAGRAMA DE ACTVIDADES" id="GhVMxQDWdpH8cc16uy0N">
    <mxGraphModel dx="840" dy="942" grid="1" gridSize="10" guides="1" tooltips="1" connect="1" arrows="1" fold="1" page="1" pageScale="1" pageWidth="827" pageHeight="1169" math="0" shadow="0">
      <root>
        <mxCell id="0" />
        <mxCell id="1" parent="0" />
        <mxCell id="YPYp1lhYxCvcWvDYL5W9-1" value="Administrador de proyecto" style="swimlane;horizontal=0;whiteSpace=wrap;html=1;" parent="1" vertex="1">
          <mxGeometry x="930" y="190" width="1820" height="200" as="geometry" />
        </mxCell>
        <mxCell id="YPYp1lhYxCvcWvDYL5W9-2" value="" style="verticalLabelPosition=bottom;verticalAlign=top;html=1;shape=mxgraph.flowchart.on-page_reference;fillColor=#000000" parent="YPYp1lhYxCvcWvDYL5W9-1" vertex="1">
          <mxGeometry x="50" y="50" width="40" height="40" as="geometry" />
        </mxCell>
        <mxCell id="YPYp1lhYxCvcWvDYL5W9-3" value="Iniciar sesiÃ³n en el sistema SSAP" style="rounded=1;whiteSpace=wrap;html=1;" parent="YPYp1lhYxCvcWvDYL5W9-1" vertex="1">
          <mxGeometry x="140" y="40" width="120" height="60" as="geometry" />
        </mxCell>
        <mxCell id="YPYp1lhYxCvcWvDYL5W9-4" value="" style="edgeStyle=orthogonalEdgeStyle;rounded=0;orthogonalLoop=1;jettySize=auto;html=1;" parent="YPYp1lhYxCvcWvDYL5W9-1" source="YPYp1lhYxCvcWvDYL5W9-2" target="YPYp1lhYxCvcWvDYL5W9-3" edge="1">
          <mxGeometry relative="1" as="geometry" />
        </mxCell>
        <mxCell id="4duGOKEmR_MfcdoMzJZN-23" style="edgeStyle=orthogonalEdgeStyle;rounded=0;orthogonalLoop=1;jettySize=auto;html=1;exitX=1;exitY=0.5;exitDx=0;exitDy=0;entryX=0;entryY=0.5;entryDx=0;entryDy=0;" parent="YPYp1lhYxCvcWvDYL5W9-1" source="YPYp1lhYxCvcWvDYL5W9-14" target="7qtSgZb_RUnTnzQGwKLB-1" edge="1">
          <mxGeometry relative="1" as="geometry" />
        </mxCell>
        <mxCell id="YPYp1lhYxCvcWvDYL5W9-14" value="Selecciona Paso 1" style="whiteSpace=wrap;html=1;" parent="YPYp1lhYxCvcWvDYL5W9-1" vertex="1">
          <mxGeometry x="700" y="40" width="120" height="60" as="geometry" />
        </mxCell>
        <mxCell id="YPYp1lhYxCvcWvDYL5W9-22" value="Seleccionar crear NotificaciÃ³n o recordatorio" style="rounded=1;whiteSpace=wrap;html=1;" parent="YPYp1lhYxCvcWvDYL5W9-1" vertex="1">
          <mxGeometry x="311" y="40" width="120" height="60" as="geometry" />
        </mxCell>
        <mxCell id="YPYp1lhYxCvcWvDYL5W9-21" value="" style="edgeStyle=orthogonalEdgeStyle;rounded=0;orthogonalLoop=1;jettySize=auto;html=1;entryX=0;entryY=0.5;entryDx=0;entryDy=0;" parent="YPYp1lhYxCvcWvDYL5W9-1" source="YPYp1lhYxCvcWvDYL5W9-22" edge="1">
          <mxGeometry relative="1" as="geometry">
            <mxPoint x="490" y="70" as="targetPoint" />
          </mxGeometry>
        </mxCell>
        <mxCell id="YPYp1lhYxCvcWvDYL5W9-23" value="" style="edgeStyle=orthogonalEdgeStyle;rounded=0;orthogonalLoop=1;jettySize=auto;html=1;" parent="YPYp1lhYxCvcWvDYL5W9-1" source="YPYp1lhYxCvcWvDYL5W9-3" target="YPYp1lhYxCvcWvDYL5W9-22" edge="1">
          <mxGeometry relative="1" as="geometry" />
        </mxCell>
        <mxCell id="4duGOKEmR_MfcdoMzJZN-24" style="edgeStyle=orthogonalEdgeStyle;rounded=0;orthogonalLoop=1;jettySize=auto;html=1;exitX=1;exitY=0.5;exitDx=0;exitDy=0;entryX=0;entryY=0.5;entryDx=0;entryDy=0;" parent="YPYp1lhYxCvcWvDYL5W9-1" source="7qtSgZb_RUnTnzQGwKLB-1" target="Q03DwwlBOR3yKNn8IUai-8" edge="1">
          <mxGeometry relative="1" as="geometry" />
        </mxCell>
        <mxCell id="7qtSgZb_RUnTnzQGwKLB-1" value="Selecciona Paso 2" style="whiteSpace=wrap;html=1;" parent="YPYp1lhYxCvcWvDYL5W9-1" vertex="1">
          <mxGeometry x="890" y="40" width="120" height="60" as="geometry" />
        </mxCell>
        <mxCell id="7qtSgZb_RUnTnzQGwKLB-9" value="Revisar y confrimar creacion de NotificaciÃ³n o recordatorio" style="whiteSpace=wrap;html=1;" parent="YPYp1lhYxCvcWvDYL5W9-1" vertex="1">
          <mxGeometry x="1362" y="40" width="120" height="60" as="geometry" />
        </mxCell>
        <mxCell id="Q03DwwlBOR3yKNn8IUai-11" style="edgeStyle=orthogonalEdgeStyle;rounded=0;orthogonalLoop=1;jettySize=auto;html=1;exitX=1;exitY=0.5;exitDx=0;exitDy=0;entryX=0;entryY=0.5;entryDx=0;entryDy=0;" parent="YPYp1lhYxCvcWvDYL5W9-1" source="Q03DwwlBOR3yKNn8IUai-8" target="7qtSgZb_RUnTnzQGwKLB-9" edge="1">
          <mxGeometry relative="1" as="geometry">
            <mxPoint x="1342" y="170" as="targetPoint" />
          </mxGeometry>
        </mxCell>
        <mxCell id="Q03DwwlBOR3yKNn8IUai-8" value="Selecciona Paso 3" style="whiteSpace=wrap;html=1;" parent="YPYp1lhYxCvcWvDYL5W9-1" vertex="1">
          <mxGeometry x="1102" y="40" width="120" height="60" as="geometry" />
        </mxCell>
        <mxCell id="No6h72y24u9i2tkKlLvF-10" style="edgeStyle=orthogonalEdgeStyle;rounded=0;orthogonalLoop=1;jettySize=auto;html=1;exitX=1;exitY=0.5;exitDx=0;exitDy=0;entryX=0;entryY=0.5;entryDx=0;entryDy=0;" edge="1" parent="YPYp1lhYxCvcWvDYL5W9-1" source="No6h72y24u9i2tkKlLvF-9" target="YPYp1lhYxCvcWvDYL5W9-14">
          <mxGeometry relative="1" as="geometry" />
        </mxCell>
        <mxCell id="No6h72y24u9i2tkKlLvF-9" value="Visualiza una serie de pasos" style="rounded=1;whiteSpace=wrap;html=1;" vertex="1" parent="YPYp1lhYxCvcWvDYL5W9-1">
          <mxGeometry x="490" y="40" width="120" height="60" as="geometry" />
        </mxCell>
        <mxCell id="4duGOKEmR_MfcdoMzJZN-1" value="SSAP&amp;nbsp;" style="swimlane;horizontal=0;whiteSpace=wrap;html=1;startSize=23;" parent="1" vertex="1">
          <mxGeometry x="930" y="714" width="1820" height="170" as="geometry" />
        </mxCell>
        <mxCell id="4duGOKEmR_MfcdoMzJZN-8" value="" style="ellipse;html=1;shape=endState;fillColor=#000000;strokeColor=#ff0000;" parent="4duGOKEmR_MfcdoMzJZN-1" vertex="1">
          <mxGeometry x="1752" y="50" width="40" height="40" as="geometry" />
        </mxCell>
        <mxCell id="4duGOKEmR_MfcdoMzJZN-12" style="edgeStyle=orthogonalEdgeStyle;rounded=0;orthogonalLoop=1;jettySize=auto;html=1;" parent="4duGOKEmR_MfcdoMzJZN-1" source="4duGOKEmR_MfcdoMzJZN-13" target="4duGOKEmR_MfcdoMzJZN-8" edge="1">
          <mxGeometry relative="1" as="geometry" />
        </mxCell>
        <mxCell id="4duGOKEmR_MfcdoMzJZN-13" value="Guarda en base de datos" style="whiteSpace=wrap;html=1;" parent="4duGOKEmR_MfcdoMzJZN-1" vertex="1">
          <mxGeometry x="1562" y="40" width="120" height="60" as="geometry" />
        </mxCell>
        <mxCell id="4duGOKEmR_MfcdoMzJZN-21" style="edgeStyle=orthogonalEdgeStyle;rounded=0;orthogonalLoop=1;jettySize=auto;html=1;exitX=1;exitY=0.5;exitDx=0;exitDy=0;" parent="4duGOKEmR_MfcdoMzJZN-1" source="YPYp1lhYxCvcWvDYL5W9-15" target="4duGOKEmR_MfcdoMzJZN-13" edge="1">
          <mxGeometry relative="1" as="geometry" />
        </mxCell>
        <mxCell id="YPYp1lhYxCvcWvDYL5W9-15" value="Envia notificacion de asignacion" style="whiteSpace=wrap;html=1;" parent="4duGOKEmR_MfcdoMzJZN-1" vertex="1">
          <mxGeometry x="1362" y="40" width="120" height="60" as="geometry" />
        </mxCell>
        <mxCell id="Q03DwwlBOR3yKNn8IUai-6" style="edgeStyle=orthogonalEdgeStyle;rounded=0;orthogonalLoop=1;jettySize=auto;html=1;exitX=0.5;exitY=1;exitDx=0;exitDy=0;entryX=0.5;entryY=0;entryDx=0;entryDy=0;" parent="1" source="7qtSgZb_RUnTnzQGwKLB-9" target="YPYp1lhYxCvcWvDYL5W9-15" edge="1">
          <mxGeometry relative="1" as="geometry" />
        </mxCell>
        <mxCell id="No6h72y24u9i2tkKlLvF-1" value="Miembros del Equipo" style="swimlane;horizontal=0;whiteSpace=wrap;html=1;startSize=23;" vertex="1" parent="1">
          <mxGeometry x="930" y="390" width="1820" height="170" as="geometry" />
        </mxCell>
        <mxCell id="No6h72y24u9i2tkKlLvF-2" style="edgeStyle=orthogonalEdgeStyle;rounded=0;orthogonalLoop=1;jettySize=auto;html=1;exitX=1;exitY=0.5;exitDx=0;exitDy=0;entryX=0;entryY=0.5;entryDx=0;entryDy=0;" edge="1" parent="No6h72y24u9i2tkKlLvF-1" source="No6h72y24u9i2tkKlLvF-3" target="No6h72y24u9i2tkKlLvF-5">
          <mxGeometry relative="1" as="geometry" />
        </mxCell>
        <mxCell id="No6h72y24u9i2tkKlLvF-3" value="Ingresa al Sistema" style="rounded=1;whiteSpace=wrap;html=1;" vertex="1" parent="No6h72y24u9i2tkKlLvF-1">
          <mxGeometry x="604" y="60" width="120" height="60" as="geometry" />
        </mxCell>
        <mxCell id="No6h72y24u9i2tkKlLvF-4" style="edgeStyle=orthogonalEdgeStyle;rounded=0;orthogonalLoop=1;jettySize=auto;html=1;exitX=1;exitY=0.5;exitDx=0;exitDy=0;entryX=0;entryY=0.5;entryDx=0;entryDy=0;" edge="1" parent="No6h72y24u9i2tkKlLvF-1" source="No6h72y24u9i2tkKlLvF-5" target="No6h72y24u9i2tkKlLvF-6">
          <mxGeometry relative="1" as="geometry" />
        </mxCell>
        <mxCell id="No6h72y24u9i2tkKlLvF-5" value="Visualiza las notificaciones y recordatorios" style="rounded=1;whiteSpace=wrap;html=1;" vertex="1" parent="No6h72y24u9i2tkKlLvF-1">
          <mxGeometry x="780" y="60" width="120" height="60" as="geometry" />
        </mxCell>
        <mxCell id="No6h72y24u9i2tkKlLvF-6" value="Confirma de Recibido" style="rounded=1;whiteSpace=wrap;html=1;" vertex="1" parent="No6h72y24u9i2tkKlLvF-1">
          <mxGeometry x="960" y="60" width="120" height="60" as="geometry" />
        </mxCell>
        <mxCell id="No6h72y24u9i2tkKlLvF-13" style="edgeStyle=orthogonalEdgeStyle;rounded=0;orthogonalLoop=1;jettySize=auto;html=1;exitX=1;exitY=0.5;exitDx=0;exitDy=0;entryX=0;entryY=0.5;entryDx=0;entryDy=0;" edge="1" parent="No6h72y24u9i2tkKlLvF-1" source="No6h72y24u9i2tkKlLvF-11" target="No6h72y24u9i2tkKlLvF-3">
          <mxGeometry relative="1" as="geometry" />
        </mxCell>
        <mxCell id="No6h72y24u9i2tkKlLvF-11" value="Recibe notificaciones o recordatorios" style="rounded=1;whiteSpace=wrap;html=1;" vertex="1" parent="No6h72y24u9i2tkKlLvF-1">
          <mxGeometry x="420" y="60" width="120" height="60" as="geometry" />
        </mxCell>
        <mxCell id="YPYp1lhYxCvcWvDYL5W9-17" value="Stakeholders" style="swimlane;horizontal=0;whiteSpace=wrap;html=1;startSize=23;" parent="1" vertex="1">
          <mxGeometry x="930" y="560" width="1820" height="154" as="geometry" />
        </mxCell>
        <mxCell id="Q03DwwlBOR3yKNn8IUai-12" style="edgeStyle=orthogonalEdgeStyle;rounded=0;orthogonalLoop=1;jettySize=auto;html=1;exitX=1;exitY=0.5;exitDx=0;exitDy=0;entryX=0;entryY=0.5;entryDx=0;entryDy=0;" parent="YPYp1lhYxCvcWvDYL5W9-17" source="Q03DwwlBOR3yKNn8IUai-3" target="Q03DwwlBOR3yKNn8IUai-4" edge="1">
          <mxGeometry relative="1" as="geometry" />
        </mxCell>
        <mxCell id="Q03DwwlBOR3yKNn8IUai-3" value="Ingresa al Sistema" style="rounded=1;whiteSpace=wrap;html=1;" parent="YPYp1lhYxCvcWvDYL5W9-17" vertex="1">
          <mxGeometry x="604" y="60" width="120" height="60" as="geometry" />
        </mxCell>
        <mxCell id="Q03DwwlBOR3yKNn8IUai-13" style="edgeStyle=orthogonalEdgeStyle;rounded=0;orthogonalLoop=1;jettySize=auto;html=1;exitX=1;exitY=0.5;exitDx=0;exitDy=0;entryX=0;entryY=0.5;entryDx=0;entryDy=0;" parent="YPYp1lhYxCvcWvDYL5W9-17" source="Q03DwwlBOR3yKNn8IUai-4" target="Q03DwwlBOR3yKNn8IUai-5" edge="1">
          <mxGeometry relative="1" as="geometry" />
        </mxCell>
        <mxCell id="Q03DwwlBOR3yKNn8IUai-4" value="Visualiza las notificaciones y recordatorios" style="rounded=1;whiteSpace=wrap;html=1;" parent="YPYp1lhYxCvcWvDYL5W9-17" vertex="1">
          <mxGeometry x="780" y="60" width="120" height="60" as="geometry" />
        </mxCell>
        <mxCell id="Q03DwwlBOR3yKNn8IUai-5" value="Confirma de Recibido" style="rounded=1;whiteSpace=wrap;html=1;" parent="YPYp1lhYxCvcWvDYL5W9-17" vertex="1">
          <mxGeometry x="960" y="60" width="120" height="60" as="geometry" />
        </mxCell>
        <mxCell id="No6h72y24u9i2tkKlLvF-14" style="edgeStyle=orthogonalEdgeStyle;rounded=0;orthogonalLoop=1;jettySize=auto;html=1;exitX=1;exitY=0.5;exitDx=0;exitDy=0;entryX=0;entryY=0.5;entryDx=0;entryDy=0;" edge="1" parent="YPYp1lhYxCvcWvDYL5W9-17" source="No6h72y24u9i2tkKlLvF-12" target="Q03DwwlBOR3yKNn8IUai-3">
          <mxGeometry relative="1" as="geometry" />
        </mxCell>
        <mxCell id="No6h72y24u9i2tkKlLvF-12" value="Recibe notificaciones o recordatorios" style="rounded=1;whiteSpace=wrap;html=1;" vertex="1" parent="YPYp1lhYxCvcWvDYL5W9-17">
          <mxGeometry x="420" y="60" width="120" height="60" as="geometry" />
        </mxCell>
        <mxCell id="4duGOKEmR_MfcdoMzJZN-25" style="edgeStyle=orthogonalEdgeStyle;rounded=0;orthogonalLoop=1;jettySize=auto;html=1;exitX=1;exitY=0.5;exitDx=0;exitDy=0;entryX=0.5;entryY=1;entryDx=0;entryDy=0;" parent="1" source="Q03DwwlBOR3yKNn8IUai-5" target="4duGOKEmR_MfcdoMzJZN-13" edge="1">
          <mxGeometry relative="1" as="geometry" />
        </mxCell>
        <mxCell id="No6h72y24u9i2tkKlLvF-8" style="edgeStyle=orthogonalEdgeStyle;rounded=0;orthogonalLoop=1;jettySize=auto;html=1;exitX=1;exitY=0.5;exitDx=0;exitDy=0;entryX=0.5;entryY=1;entryDx=0;entryDy=0;" edge="1" parent="1" source="No6h72y24u9i2tkKlLvF-6" target="4duGOKEmR_MfcdoMzJZN-13">
          <mxGeometry relative="1" as="geometry" />
        </mxCell>
      </root>
    </mxGraphModel>
  </diagram>
</mxfile>
